<?xml version="1.0" encoding="UTF-8" standalone="no"?>
<svg
   version="1.1"
   x="0px"
   y="0px"
   viewBox="0 0 88.23587 94.774384"
   enable-background="new 0 0 100 100"
   xml:space="preserve"
   id="svg8"
   sodipodi:docname="squintymongrel.svg"
   width="88.23587"
   height="94.774384"
   inkscape:version="1.1.1 (1:1.1+202109281949+c3084ef5ed)"
   xmlns:inkscape="http://www.inkscape.org/namespaces/inkscape"
   xmlns:sodipodi="http://sodipodi.sourceforge.net/DTD/sodipodi-0.dtd"
   xmlns="http://www.w3.org/2000/svg"
   xmlns:svg="http://www.w3.org/2000/svg"><defs
     id="defs12" /><sodipodi:namedview
     id="namedview10"
     pagecolor="#ffffff"
     bordercolor="#666666"
     borderopacity="1.0"
     inkscape:pageshadow="2"
     inkscape:pageopacity="0.0"
     inkscape:pagecheckerboard="0"
     showgrid="false"
     inkscape:zoom="5.6568545"
     inkscape:cx="-4.5961939"
     inkscape:cy="41.896075"
     inkscape:window-width="2560"
     inkscape:window-height="1000"
     inkscape:window-x="1200"
     inkscape:window-y="1080"
     inkscape:window-maximized="1"
     inkscape:current-layer="svg8"
     fit-margin-top="1"
     fit-margin-left="1"
     fit-margin-right="1"
     fit-margin-bottom="1" /><path
     d="m 62.080212,2.4164205 c 3.291,-1.46200004 6.342,-1.79200004 9.152,-0.991 2.811,0.802 4.814,2.661 6.017,5.576 l 8.18,2.018 c 0.516,0.098 0.954,0.378 1.32,0.843 0.368,0.4399995 0.527,0.9169995 0.478,1.4309995 -0.219,4.06 -1.968,7.178 -5.246,9.354 -2.151,1.443 -4.731,2.373 -7.741,2.789 -0.513,0.073 -0.964,0.306 -1.356,0.696 -0.189,0.178 -0.342,0.368 -0.459,0.569 -0.132,0.235 -0.211,0.486 -0.238,0.752 v 0.073 l -1.137,7.888 c 0.199,1.552 0.849,3.111 1.944,4.677 1.103,1.568 2.062,3.416 2.879,5.539 -0.539,-0.162 -1.045,-0.351 -1.521,-0.568 -0.636,-0.292 -1.162,-0.513 -1.577,-0.66 0.415,0.562 0.905,1.651 1.466,3.265 0.612,1.736 0.919,3.031 0.919,3.89 0,0.317 -0.063,0.806 -0.184,1.465 -0.024,-0.342 -0.27,-0.684 -0.735,-1.026 -0.538,-0.342 -0.904,-0.61 -1.1,-0.807 0.195,1.688 0.11,3.46 -0.257,5.32 -0.391,1.955 -1.039,3.729 -1.944,5.318 h -0.183 c 0,-0.319 -0.098,-0.782 -0.294,-1.395 -0.195,-0.588 -0.281,-1.038 -0.256,-1.355 -0.147,0.831 -1.015,2.408 -2.605,4.731 -0.443,0.653 -0.816,1.281 -1.12,1.888 -0.06,0.477 -0.113,0.946 -0.164,1.414 -0.4,3.789 -0.608,7.165 -0.624,10.123 -0.098,4.647 0.748,7.9 2.532,9.76 2.348,2.397 3.399,4.377 3.154,5.942 -0.465,1.59 -1.97,2.348 -4.513,2.275 -3.839,0 -6.726,-2.263 -8.657,-6.785 -0.083,-0.187 -0.199,-0.493 -0.349,-0.919 2.824,-11.91 0.839,-18.488 -5.962,-19.735 -4.77,-0.858 -8.865,0.658 -12.289,4.547 2.886,-3.008 6.372,-4.108 10.456,-3.3 5.445,1.103 7.316,6.439 5.612,16.013 -0.574,1.582 -1.211,3.077 -1.908,4.494 3.424,0 5.368,0.818 5.835,2.455 0.243,0.834 0.157,1.652 -0.259,2.46 -3.791,1.688 -10.027,1.774 -18.709,0.258 -4.429,-0.795 -7.888,-1.13 -10.381,-1.009 v -0.021 c -8.048,-0.412 -15.078,-2.682 -21.0949997,-6.803 -6.016,-4.123 -8.70600003,-10.585 -8.07,-19.39 l 4.183,2.752 c -2.959,-5.015 -2.959,-10.444 0,-16.288 l 2.127,3.704 c -1.051,-5.062 0.771,-10.014 5.4659997,-14.857 v 3.888 c 2.446,-2.224 3.327,-6.664 2.642,-13.315 9.146,5.087 10.003,13.781 2.568,26.083 -4.109,7.632 -4.757,14.455 -1.945,20.471 1.586,3.366 3.28,5.696 5.082,6.987 0.495,-11.813 3.125,-21.768 7.888,-29.862 1.682,-2.859 4.757,-7.353 9.226,-13.48 4.807,-5.989 7.705,-9.547 8.695,-10.676 2.86,-3.252 4.292,-6.285 4.292,-9.098 0,-0.93 0.049,-2.152 0.147,-3.668 2.836,2.959 6.187,4.438 10.052,4.438 1.613,0 3.179,-0.256 4.694,-0.771 0.489,-0.146 0.905,-0.453 1.247,-0.917 0.392,-0.464 0.587,-0.954 0.587,-1.467 0.195,-2.813 -0.587,-6.2 -2.348,-10.1629995 -0.963,-2.239 -2.167,-4.513 -3.614,-6.82 z"
     id="path825"
     style="display:inline;fill:#6c5d53" /><path
     d="m 73.762212,8.3954205 c -0.343,-0.343 -0.797688,-0.5130634 -1.247,-0.513 -0.449312,6.34e-5 -0.904,0.17 -1.246,0.513 -0.342,0.342 -0.514,0.758 -0.514,1.248 0,0.4889995 0.172,0.9049995 0.514,1.2469995 0.342,0.343 0.759,0.514 1.246,0.514 0.489,0 0.904,-0.171 1.247,-0.514 0.343,-0.342 0.514,-0.758 0.514,-1.2469995 0,-0.49 -0.171,-0.905 -0.514,-1.248 z"
     id="path823"
     style="display:inline;fill:#483e37;fill-opacity:1" /><path
     d="m 54.393212,7.1854205 1.431,-1.981 c 1.271,-1.395 2.689,-2.397 4.256,-3.008 1.64,2.421 3.033,4.867 4.183,7.336 1.811,3.9379995 2.641,7.2519995 2.494,9.9409995 -0.024,0.147 -0.099,0.294 -0.221,0.441 -0.146,0.171 -0.27,0.282 -0.367,0.33 -2.078,0.661 -4.12,0.832 -6.126,0.514 -3.032,-0.538 -5.649,-2.213 -7.85,-5.025 0.39,-3.645 1.124,-6.4939995 2.2,-8.5479995 z"
     id="path2"
     style="display:inline;fill:#6c5d53" /></svg>
